#!OML:ASF F:\VICON\USERDATA\INSTALL\Justin_Nancy\Justin_Nancy.ASF
:FULLY-SPECIFIED
:DEGREES
299
root 5.19157 17.3199 10.1291 -4.11588 -81.4727 9.4768
lowerback 4.53607 1.98618 -1.5511
upperback -0.501513 2.6049 1.54446
thorax -3.20097 1.33589 2.27042
lowerneck -16.1828 -5.09678 -10.032
upperneck 23.7723 -6.37825 6.36899
head 10.8783 -3.16635 3.04973
rclavicle 3.67752e-015 -3.97569e-015
rhumerus -34.309 -10.6316 -81.1912
rradius 27.3392
rwrist 2.61863
rhand -15.1931 9.69744
rfingers 7.12502
rthumb 10.9785 -19.9955
lclavicle 3.67752e-015 -3.97569e-015
lhumerus -28.2576 13.0498 81.3691
lradius 31.5453
lwrist -4.99447
lhand -17.9573 25.8717
lfingers 7.12502
lthumb 8.31158 55.6882
rfemur 10.8448 8.34056 24.9498
rtibia 24.9838
rfoot -3.71369 7.61581
rtoes 0.939888
lfemur -29.0542 -10.4227 -14.6246
ltibia 24.7724
lfoot -3.89918 -7.82804
ltoes 8.62887
300
root 5.04721 17.3331 10.2007 -4.31687 -81.9257 9.52371
lowerback 4.58881 2.08083 -1.532
upperback -0.503371 2.7318 1.5489
thorax -3.23859 1.39904 2.25261
lowerneck -16.2958 -5.13427 -10.011
upperneck 24.0594 -6.4565 6.38858
head 11.0142 -3.2008 3.0426
rclavicle 4.09496e-014 7.95139e-016
rhumerus -34.8913 -9.20861 -81.7649
rradius 27.9838
rwrist -0.319268
rhand -16.2412 8.17718
rfingers 7.12502
rthumb 9.96751 -21.5668
lclavicle 4.09496e-014 7.95139e-016
lhumerus -28.815 14.1664 81.3685
lradius 31.5926
lwrist -5.81468
lhand -17.9855 25.7961
lfingers 7.12502
lthumb 8.28436 55.6136
rfemur 9.60129 8.14288 24.5359
rtibia 27.8857
rfoot -1.44592 8.19636
rtoes 4.36191
lfemur -28.3423 -9.6435 -14.949
ltibia 24.9879
lfoot -3.97833 -9.13189
ltoes 11.2437
301
root 4.90525 17.353 10.3165 -3.30176 -82.9238 7.55222
lowerback 5.35629 2.24924 -0.543278
upperback -0.218884 3.00585 1.55182
thorax -3.3388 1.51393 1.65683
lowerneck -16.307 -5.06553 -10.3094
upperneck 24.0179 -6.33239 6.61658
head 11.0083 -3.14428 3.19502
rclavicle -1.97294e-014 9.54166e-015
rhumerus -35.2843 -8.75047 -81.6972
rradius 28.1756
rwrist -1.29466
rhand -16.3089 7.77509
rfingers 7.12502
rthumb 9.90217 -21.972
lclavicle -1.97294e-014 9.54166e-015
lhumerus -29.2301 14.8902 81.2814
lradius 31.55
lwrist -6.17894
lhand -17.8468 25.7727
lfingers 7.12502
lthumb 8.41822 55.5849
rfemur 9.22778 7.9252 24.1817
rtibia 30.6648
rfoot 1.21658 9.36002
rtoes 5.8803
lfemur -26.5232 -9.71898 -14.7406
ltibia 25.1405
lfoot -4.14646 -9.70249
ltoes 17.3403
302
root 4.76661 17.371 10.3518 -1.43229 -83.2548 6.15954
lowerback 4.76048 2.18845 -0.764929
upperback -0.301437 2.91623 1.67451
thorax -3.10394 1.47448 1.9361
lowerneck -16.3652 -4.9206 -10.5008
upperneck 23.8375 -6.09232 6.77928
head 10.941 -3.02866 3.32097
rclavicle -9.64106e-015 -5.56597e-015
rhumerus -35.28 -10.0529 -80.8623
rradius 27.5701
rwrist 0.672327
rhand -15.13 8.80806
rfingers 7.12502
rthumb 11.0393 -20.8816
lclavicle -9.64106e-015 -5.56597e-015
lhumerus -29.4568 15.2584 81.1575
lradius 31.4477
lwrist -5.77709
lhand -17.5136 25.5262
lfingers 7.12502
lthumb 8.73969 55.3253
rfemur 7.03014 7.98207 24.1394
rtibia 33.6385
rfoot 4.03238 9.29951
rtoes 7.23003
lfemur -26.5307 -9.76472 -14.2691
ltibia 25.1108
lfoot -3.93872 -10.1888
ltoes 21.9308
303
root 4.62648 17.3902 10.4488 -10.325 -84.222 14.3571
lowerback 5.29747 2.42763 -0.987488
upperback 0.0192938 3.20531 1.25466
thorax -3.07401 1.61609 1.59058
lowerneck -16.3963 -4.87218 -10.3332
upperneck 23.6428 -6.06522 6.8341
head 10.8672 -2.99052 3.31425
rclavicle -2.13694e-015 -3.97569e-015
rhumerus -35.2511 -12.6466 -79.851
rradius 26.8978
rwrist 3.41092
rhand -14.8447 9.45589
rfingers 7.12502
rthumb 11.3145 -20.2189
lclavicle -2.13694e-015 -3.97569e-015
lhumerus -29.5537 15.1063 81.052
lradius 31.3471
lwrist -5.01667
lhand -17.8608 25.8255
lfingers 7.12502
lthumb 8.40469 55.6383
rfemur 6.22121 8.07515 22.7781
rtibia 36.6113
rfoot 6.44572 10.0112
rtoes 8.14646
lfemur -24.6804 -9.55545 -15.483
ltibia 24.9167
lfoot -4.91089 -9.80691
ltoes 21.2383
304
root 4.49206 17.4133 10.4832 -18.4538 -84.1939 23.1798
lowerback 4.54305 2.28791 -2.20226
upperback -0.0832721 2.95627 1.00397
thorax -2.7961 1.50928 2.06024
lowerneck -16.5012 -4.68332 -10.1443
upperneck 23.5736 -5.86148 6.94079
head 10.8372 -2.86538 3.35072
rclavicle -2.83268e-014 -7.95139e-016
rhumerus -35.2226 -13.7744 -79.5953
rradius 26.7015
rwrist 4.30885
rhand -15.2461 9.41867
rfingers 7.12502
rthumb 10.9274 -20.277
lclavicle -2.83268e-014 -7.95139e-016
lhumerus -29.7611 15.2906 80.8262
lradius 31.2983
lwrist -4.84016
lhand -18.426 26.3158
lfingers 7.12502
lthumb 7.85922 56.1497
rfemur 3.62789 7.94146 21.5371
rtibia 39.6962
rfoot 8.52955 9.99214
rtoes 8.34632
lfemur -24.612 -8.35383 -16.8552
ltibia 24.4253
lfoot -5.30652 -10.732
ltoes 15.4176
305
root 4.36031 17.4223 10.5454 -21.2307 -84.6566 25.9671
lowerback 4.46954 2.20295 -2.23625
upperback -0.0989307 2.84106 0.93178
thorax -2.76271 1.45183 2.01601
lowerneck -16.4749 -4.45294 -10.1186
upperneck 23.4739 -5.58404 7.11226
head 10.7707 -2.71691 3.45021
rclavicle -3.54831e-014 7.95139e-016
rhumerus -35.2674 -14.1844 -79.4683
rradius 26.5292
rwrist 4.53135
rhand -14.4048 9.84769
rfingers 7.12502
rthumb 11.7388 -19.8034
lclavicle -3.54831e-014 7.95139e-016
lhumerus -30.1677 15.5736 80.5755
lradius 31.1343
lwrist -5.04225
lhand -18.8171 26.4535
lfingers 7.12502
lthumb 7.48169 56.3012
rfemur 1.7495 7.87614 21.0497
rtibia 42.7405
rfoot 9.7881 10.0712
rtoes 11.8317
lfemur -23.6818 -5.86773 -18.102
ltibia 23.7349
lfoot -7.05419 -11.7362
ltoes -1.54434
306
root 4.22897 17.4649 10.6254 -34.4452 -85.3198 38.7687
lowerback 4.93946 2.30627 -2.76932
upperback 0.0076003 2.9316 0.722645
thorax -2.93743 1.50307 2.07568
lowerneck -16.4544 -4.2339 -10.0967
upperneck 23.2833 -5.2523 7.06416
head 10.6607 -2.56666 3.47554
rclavicle -7.15625e-015 -1.59028e-015
rhumerus -35.1491 -12.9363 -79.9761
rradius 26.5833
rwrist 2.97987
rhand -14.2533 9.49976
rfingers 7.12502
rthumb 11.8849 -20.1429
lclavicle -7.15625e-015 -1.59028e-015
lhumerus -30.5042 15.7996 80.4011
lradius 30.9173
lwrist -4.90349
lhand -19.1071 26.7148
lfingers 7.12502
lthumb 7.20179 56.5723
rfemur 0.508572 8.03701 19.8754
rtibia 45.6749
rfoot 9.95621 10.1884
rtoes 15.576
lfemur -21.8268 -6.36175 -18.3596
ltibia 22.8453
lfoot -5.51846 -11.2811
ltoes 15.054
307
root 4.10419 17.4915 10.6541 -47.7919 -84.8844 52.7129
lowerback 4.54079 2.22509 -4.52143
upperback -0.233295 2.73405 0.543335
thorax -3.02667 1.43571 2.89673
lowerneck -16.4141 -4.08557 -10.0537
upperneck 23.2136 -5.01025 6.90057
head 10.5975 -2.47149 3.44324
rclavicle -2.90723e-014 -1.59028e-015
rhumerus -35.1345 -11.9812 -80.306
rradius 26.6697
rwrist 2.09053
rhand -14.6296 9.16689
rfingers 7.12502
rthumb 11.522 -20.4964
lclavicle -2.90723e-014 -1.59028e-015
lhumerus -30.831 15.3942 80.4473
lradius 30.6039
lwrist -4.3811
lhand -19.3884 26.5068
lfingers 7.12502
lthumb 6.93019 56.3733
rfemur -1.91242 7.72148 18.3026
rtibia 48.4918
rfoot 9.05191 9.93784
rtoes 13.6339
lfemur -21.6634 -6.31221 -19.4653
ltibia 22.5329
lfoot -5.1258 -11.1875
ltoes 20.9221
308
root 3.9828 17.4983 10.713 -58.068 -84.176 62.9587
lowerback 4.78369 2.2238 -5.6175
upperback -0.294745 2.64077 0.164161
thorax -3.25283 1.40857 3.11499
lowerneck -16.43 -4.0776 -9.86425
upperneck 23.26 -5.05008 6.87494
head 10.6147 -2.47747 3.39656
rclavicle -5.16343e-014 -3.97569e-015
rhumerus -35.2353 -12.628 -80.1293
rradius 26.7186
rwrist 2.73881
rhand -13.6891 9.69487
rfingers 7.12502
rthumb 12.4289 -19.9156
lclavicle -5.16343e-014 -3.97569e-015
lhumerus -31.0385 14.8725 80.4447
lradius 30.2568
lwrist -4.30097
lhand -19.1586 26.4656
lfingers 7.12502
lthumb 7.15203 56.3248
rfemur -3.57418 7.32276 16.7797
rtibia 51.045
rfoot 7.72744 9.7418
rtoes 9.67567
lfemur -20.9221 -5.37984 -21.2774
ltibia 22.2915
lfoot -5.87973 -11.5922
ltoes 16.7376
309
root 3.8792 17.4885 10.777 -43.1827 -85.6591 48.3028
lowerback 4.80951 1.95926 -3.31208
upperback -0.448636 2.43291 0.502757
thorax -3.32034 1.274 2.18767
lowerneck -16.5831 -4.02654 -9.42395
upperneck 23.2706 -5.05527 6.75666
head 10.6317 -2.45169 3.27718
rclavicle -3.14577e-014 -4.77083e-015
rhumerus -35.1003 -13.262 -80.1931
rradius 26.6593
rwrist 3.43691
rhand -13.3389 10.059
rfingers 7.12502
rthumb 12.7665 -19.5307
lclavicle -3.14577e-014 -4.77083e-015
lhumerus -31.0456 14.7854 80.1837
lradius 29.8034
lwrist -4.95858
lhand -18.7181 26.0781
lfingers 7.12502
lthumb 7.57722 55.9223
rfemur -5.5892 6.99406 18.9746
rtibia 53.35
rfoot 6.64315 8.62372
rtoes 6.64484
lfemur -20.9905 -3.25614 -20.1788
ltibia 22.2432
lfoot -7.80693 -12.8564
ltoes 1.27191
